<svg width="685" height="159" viewBox="0 0 685 159" fill="none" xmlns="http://www.w3.org/2000/svg">
<path d="M197.284 76.3402C197.284 101.301 215.168 118.413 238.842 118.413C263.674 118.413 276.926 102.716 278.47 82.516L257.498 81.6154C256.212 90.6218 251.322 98.9849 238.713 98.9849C226.748 98.9849 219.8 90.1071 219.8 76.3402C219.8 62.5732 226.748 53.6955 238.713 53.6955C251.322 53.6955 256.212 62.0586 257.498 71.065L278.47 70.293C276.926 50.0929 263.674 34.2673 238.842 34.2673C215.168 34.2673 197.284 51.3795 197.284 76.3402Z" fill="#15202B"/>
<path d="M369.666 76.3402C369.666 51.3795 351.139 34.2673 327.593 34.2673C304.048 34.2673 285.52 51.3795 285.52 76.3402C285.52 101.301 304.048 118.413 327.593 118.413C351.139 118.413 369.666 101.301 369.666 76.3402ZM347.15 76.3402C347.15 90.1071 339.559 99.1136 327.593 99.1136C315.628 99.1136 308.036 90.1071 308.036 76.3402C308.036 62.5732 315.628 53.5668 327.593 53.5668C339.559 53.5668 347.15 62.5732 347.15 76.3402Z" fill="#15202B"/>
<path d="M422.126 116.869L453.262 35.8113H431.518L411.447 89.7212H410.932L390.861 35.8113H367.959L399.095 116.869H422.126Z" fill="#15202B"/>
<path d="M524.003 98.8562H481.673V84.832H513.452V67.0764H481.673V53.8241H522.845V35.8113H460.186V116.869H524.003V98.8562Z" fill="#15202B"/>
<path d="M606.047 116.869C603.345 113.91 602.959 110.307 601.801 98.2129C600.9 88.8205 596.011 84.06 587.648 82.3874C597.555 81.1007 604.889 73.3809 604.889 61.5439C604.889 45.7184 594.467 35.8113 573.495 35.8113H532.58V116.869H554.067V89.9785H568.606C575.94 89.9785 579.928 92.0371 580.572 101.301C581.215 109.664 582.244 114.682 583.917 116.869H606.047ZM554.067 73.1236V53.3095H569.635C578.899 53.3095 583.531 56.7834 583.531 63.3452C583.531 70.8077 578.899 73.1236 569.635 73.1236H554.067Z" fill="#15202B"/>
<path d="M612.759 88.1772C612.759 107.734 628.456 118.413 650.457 118.413C669.37 118.413 684.295 109.793 684.295 92.5517C684.295 79.2994 676.576 70.4217 659.592 67.4624L644.281 64.7605C639.263 63.8599 636.175 62.4446 636.175 58.7133C636.175 54.2101 640.293 51.3795 647.498 51.3795C655.861 51.3795 661.908 55.2394 662.551 63.6025L682.623 63.2165C682.237 45.2037 670.142 34.2673 647.755 34.2673C627.555 34.2673 614.689 44.1744 614.689 60.6433C614.689 74.7962 623.952 82.2587 637.205 84.7033L652.001 87.2766C658.177 88.4345 662.937 89.2065 662.937 93.967C662.937 98.4703 658.048 101.172 650.457 101.172C641.451 101.172 633.602 97.6983 632.83 87.5339L612.759 88.1772Z" fill="#15202B"/>
<path fill-rule="evenodd" clip-rule="evenodd" d="M0.000244141 79.1733C0.000244141 122.654 35.3687 158.347 79.1736 158.347C122.978 158.347 158.347 122.654 158.347 79.1733C158.347 35.6929 122.978 0 79.1736 0C35.6931 0 0.000244141 35.6929 0.000244141 79.1733ZM145.045 55.8124H148.614C150.886 62.9509 152.508 70.7385 152.184 79.175C152.184 87.6115 150.886 95.7235 148.29 103.187H145.045C128.401 103.596 114.109 107.389 101.059 110.853C83.0703 115.628 67.4427 119.776 51.2701 113.57C34.3971 107.08 27.2585 93.4521 27.2585 79.4995C27.2585 65.5468 34.7215 51.5941 51.2701 45.429C67.4427 39.2232 83.0703 43.3712 101.059 48.1457C114.109 51.6095 128.401 55.4031 145.045 55.8124ZM39.9121 139.851C39.437 139.851 39.1358 139.677 38.7539 139.456C38.6141 139.376 38.4635 139.289 38.2897 139.202C49.971 147.314 64.2481 151.856 79.4987 151.856C105.133 151.856 127.846 138.553 140.826 118.435C129.457 121.739 119.718 125.944 110.492 129.928C88.9117 139.248 70.1446 147.352 39.9121 139.851ZM79.1786 5.84271C105.461 5.84271 128.175 19.7954 141.154 40.2377C129.604 36.9799 119.706 32.7009 110.299 28.6343C88.7862 19.3348 69.8437 11.1461 39.5919 18.8219C39.1052 18.9842 38.5373 19.1464 37.9695 19.3087C37.4017 19.4709 36.8338 19.6331 36.3471 19.7954C48.3529 11.0344 63.279 5.84271 79.1786 5.84271Z" fill="#FF5100"/>
</svg>
